<?xml version="1.0" standalone="no"?>
<!DOCTYPE svg PUBLIC "-//W3C//DTD SVG 20010904//EN"
 "http://www.w3.org/TR/2001/REC-SVG-20010904/DTD/svg10.dtd">
<svg version="1.0" xmlns="http://www.w3.org/2000/svg"
 width="300.000000pt" height="300.000000pt" viewBox="0 0 300.000000 300.000000"
 preserveAspectRatio="xMidYMid meet">
<metadata>
Created by potrace 1.10, written by Peter Selinger 2001-2011
</metadata>
<g transform="translate(0.000000,300.000000) scale(0.100000,-0.100000)"
fill="#ffffff" stroke="none">
<path d="M1825 2981 c17 -10 32 -16 35 -14 8 7 -32 33 -49 33 -9 0 -3 -8 14
-19z"/>
<path d="M1805 2920 c-17 -8 -16 -8 8 -7 15 1 27 5 27 9 0 10 -9 9 -35 -2z"/>
<path d="M1418 2783 c7 -3 16 -2 19 1 4 3 -2 6 -13 5 -11 0 -14 -3 -6 -6z"/>
<path d="M1360 2710 c-9 -6 -10 -10 -3 -10 6 0 15 5 18 10 8 12 4 12 -15 0z"/>
<path d="M1493 2713 c9 -2 23 -2 30 0 6 3 -1 5 -18 5 -16 0 -22 -2 -12 -5z"/>
<path d="M1353 2680 c-35 -14 -27 -20 10 -8 17 6 34 13 36 14 8 7 -24 3 -46
-6z"/>
<path d="M1370 2650 c-13 -11 -18 -20 -12 -20 6 0 14 5 17 11 4 6 17 14 29 19
14 6 16 9 5 9 -9 1 -26 -8 -39 -19z"/>
<path d="M1240 2634 l-25 -15 25 7 c28 7 35 12 29 18 -2 2 -15 -2 -29 -10z"/>
<path d="M1255 2609 c-16 -10 -24 -19 -17 -19 7 0 10 -5 7 -10 -4 -6 -10 -8
-14 -6 -4 3 -8 -1 -8 -9 0 -19 11 -19 27 0 7 8 15 13 19 11 4 -3 13 4 20 16
10 16 10 18 0 12 -9 -5 -10 -2 -6 9 3 10 5 17 4 16 -1 0 -15 -9 -32 -20z m22
-15 c-3 -3 -12 -4 -19 -1 -8 3 -5 6 6 6 11 1 17 -2 13 -5z"/>
<path d="M1470 2615 c-7 -9 -10 -18 -7 -21 3 -3 10 4 17 15 13 25 8 27 -10 6z"/>
<path d="M1526 2583 c-16 -19 -40 -39 -53 -44 -13 -5 -21 -13 -18 -19 3 -5 0
-7 -7 -5 -8 3 -21 -8 -31 -25 -10 -17 -22 -28 -26 -25 -5 2 -21 -5 -36 -17
-18 -14 -29 -17 -34 -10 -4 7 -21 -3 -45 -28 -21 -22 -42 -37 -47 -34 -5 3
-19 -1 -31 -8 -26 -14 -27 -14 -119 -26 -45 -5 -65 -4 -62 3 5 13 80 65 94 65
5 0 7 5 4 10 -3 6 1 10 9 10 9 0 16 7 16 16 0 8 4 13 8 10 5 -3 26 12 46 33
34 35 36 41 24 60 -13 22 -35 23 -30 2 1 -7 -2 -10 -8 -6 -6 4 -24 -5 -40 -19
-17 -14 -37 -23 -44 -20 -8 3 -17 1 -21 -5 -4 -7 1 -8 12 -5 10 4 -8 -18 -40
-47 -31 -30 -57 -60 -57 -68 0 -7 18 6 39 30 21 24 42 41 46 37 6 -6 -38 -61
-90 -110 -19 -18 -19 -19 0 -17 11 1 49 1 85 0 63 -2 64 -2 35 -15 -38 -16
-117 -27 -109 -15 3 5 0 9 -6 9 -7 0 -10 -7 -6 -15 3 -9 -3 -19 -15 -25 -11
-6 -17 -15 -14 -21 4 -5 3 -9 -2 -9 -4 0 -25 -27 -46 -59 -25 -39 -35 -64 -31
-76 5 -12 4 -16 -4 -11 -6 3 -13 2 -17 -4 -4 -6 -10 -8 -14 -5 -5 2 -7 -12 -5
-32 1 -20 -4 -46 -13 -59 -8 -13 -11 -24 -5 -24 11 0 10 -14 -3 -43 -9 -22 3
-89 16 -82 5 4 9 -3 9 -15 0 -14 -4 -19 -12 -14 -7 4 -10 4 -6 0 4 -5 3 -18
-2 -31 -5 -14 -5 -26 3 -34 8 -8 8 -11 0 -11 -12 0 -6 -37 8 -46 5 -3 7 15 6
41 -2 37 0 45 15 45 10 0 18 4 18 10 0 5 -7 7 -15 4 -12 -5 -14 0 -9 25 4 20
1 39 -10 55 -8 14 -12 26 -8 28 4 2 15 38 23 81 15 72 15 78 0 72 -13 -5 -14
-4 -3 7 7 7 17 13 21 13 4 0 20 15 35 33 30 34 25 43 -7 15 -14 -13 -18 -13
-12 -3 5 8 22 25 37 39 16 13 27 26 24 29 -3 2 6 14 20 25 16 12 22 22 15 26
-18 11 27 53 49 46 34 -11 256 92 318 149 13 12 25 19 26 16 3 -5 24 9 102 69
39 30 92 97 83 105 -2 2 -17 -13 -33 -31z m-321 -63 c-10 -11 -21 -17 -24 -13
-3 4 -10 12 -16 16 -6 5 -4 7 6 4 9 -3 22 -1 30 4 22 14 24 11 4 -11z m-38
-24 c0 -8 -5 -12 -11 -10 -6 2 -22 -6 -36 -17 -14 -11 -19 -18 -12 -14 6 3 12
1 12 -4 0 -13 -27 -15 -34 -2 -7 11 50 61 68 61 7 0 13 -6 13 -14z m153 -70
c0 -3 -4 -8 -10 -11 -5 -3 -10 -1 -10 4 0 6 5 11 10 11 6 0 10 -2 10 -4z
m-350 -210 c0 -3 -4 -8 -10 -11 -5 -3 -10 -1 -10 4 0 6 5 11 10 11 6 0 10 -2
10 -4z"/>
<path d="M1186 2593 c-4 -5 -11 -8 -14 -9 -12 -1 -47 -18 -57 -26 -5 -5 -19
-15 -30 -23 -12 -9 -3 -8 24 4 41 18 103 59 90 60 -3 1 -9 -2 -13 -6z"/>
<path d="M1396 2585 c-3 -8 -1 -15 4 -15 6 0 10 7 10 15 0 8 -2 15 -4 15 -2 0
-6 -7 -10 -15z"/>
<path d="M1492 2580 c-18 -29 -15 -38 4 -12 9 13 14 25 12 27 -2 2 -9 -5 -16
-15z"/>
<path d="M1392 2514 c-74 -74 -74 -86 -1 -17 41 39 79 86 67 82 -2 0 -32 -29
-66 -65z"/>
<path d="M1290 2543 c-21 -22 -22 -24 -4 -15 23 12 51 42 38 41 -5 0 -20 -12
-34 -26z"/>
<path d="M1700 2550 c-14 -11 -20 -20 -14 -20 5 0 15 5 22 12 9 9 20 4 47 -22
42 -41 47 -33 6 9 -16 16 -26 32 -23 35 14 15 -16 3 -38 -14z"/>
<path d="M1326 2525 c-14 -25 -16 -39 -9 -46 8 -8 13 -7 18 2 5 8 4 10 -3 5
-14 -9 -15 3 -3 23 12 18 41 23 41 8 0 -7 5 -5 10 3 7 11 5 19 -7 28 -24 17
-26 16 -47 -23z"/>
<path d="M1555 2549 c-4 -6 -5 -12 -2 -15 2 -3 7 2 10 11 7 17 1 20 -8 4z"/>
<path d="M1516 2504 c-10 -14 -15 -28 -13 -31 3 -2 13 7 23 21 9 15 14 29 12
32 -3 2 -13 -7 -22 -22z"/>
<path d="M1638 2523 c7 -3 16 -2 19 1 4 3 -2 6 -13 5 -11 0 -14 -3 -6 -6z"/>
<path d="M1848 2503 c6 -2 18 -2 25 0 6 3 1 5 -13 5 -14 0 -19 -2 -12 -5z"/>
<path d="M993 2492 c-9 -5 -6 -12 10 -21 19 -13 21 -12 10 1 -7 8 -10 18 -6
21 9 9 1 8 -14 -1z"/>
<path d="M1565 2470 c28 -12 37 -12 30 0 -3 6 -16 10 -28 9 -21 0 -21 -1 -2
-9z"/>
<path d="M1836 2467 c3 -10 9 -15 12 -12 3 3 0 11 -7 18 -10 9 -11 8 -5 -6z"/>
<path d="M1233 2442 c1 -14 5 -18 11 -12 7 7 6 14 -1 21 -9 9 -12 7 -10 -9z"/>
<path d="M1458 2425 c-16 -18 -28 -37 -28 -41 0 -5 7 -1 15 10 8 11 19 15 27
10 7 -4 10 -3 5 1 -4 5 0 19 8 32 23 34 4 27 -27 -12z"/>
<path d="M1628 2443 c6 -2 18 -2 25 0 6 3 1 5 -13 5 -14 0 -19 -2 -12 -5z"/>
<path d="M1908 2443 c7 -3 16 -2 19 1 4 3 -2 6 -13 5 -11 0 -14 -3 -6 -6z"/>
<path d="M1850 2420 c0 -5 5 -10 11 -10 5 0 7 5 4 10 -3 6 -8 10 -11 10 -2 0
-4 -4 -4 -10z"/>
<path d="M1150 2409 c0 -5 5 -7 10 -4 6 3 10 8 10 11 0 2 -4 4 -10 4 -5 0 -10
-5 -10 -11z"/>
<path d="M957 2389 c7 -7 15 -10 18 -7 3 3 -2 9 -12 12 -14 6 -15 5 -6 -5z"/>
<path d="M1890 2390 c0 -5 5 -10 11 -10 5 0 7 5 4 10 -3 6 -8 10 -11 10 -2 0
-4 -4 -4 -10z"/>
<path d="M1568 2383 c7 -3 16 -2 19 1 4 3 -2 6 -13 5 -11 0 -14 -3 -6 -6z"/>
<path d="M1950 2380 c20 -13 43 -13 35 0 -3 6 -16 10 -28 10 -18 0 -19 -2 -7
-10z"/>
<path d="M1400 2371 c0 -16 -122 -71 -157 -71 -19 0 -32 -4 -29 -9 16 -25 196
48 196 79 0 6 -2 10 -5 10 -3 0 -5 -4 -5 -9z"/>
<path d="M2077 2359 c7 -7 15 -10 18 -7 3 3 -2 9 -12 12 -14 6 -15 5 -6 -5z"/>
<path d="M1486 2351 c-4 -7 -5 -15 -2 -18 9 -9 19 4 14 18 -4 11 -6 11 -12 0z"/>
<path d="M2370 2326 c0 -2 8 -10 18 -17 15 -13 16 -12 3 4 -13 16 -21 21 -21
13z"/>
<path d="M2100 2290 c0 -5 7 -7 15 -4 8 4 15 8 15 10 0 2 -7 4 -15 4 -8 0 -15
-4 -15 -10z"/>
<path d="M779 2253 c-13 -16 -12 -17 4 -4 9 7 17 15 17 17 0 8 -8 3 -21 -13z"/>
<path d="M2169 2217 c6 -8 7 -18 3 -22 -4 -5 -2 -5 5 -1 14 8 6 36 -9 36 -7 0
-6 -5 1 -13z"/>
<path d="M1955 2200 c-3 -6 1 -7 9 -4 18 7 21 14 7 14 -6 0 -13 -4 -16 -10z"/>
<path d="M1575 2180 c-3 -5 3 -10 15 -10 12 0 18 5 15 10 -3 6 -10 10 -15 10
-5 0 -12 -4 -15 -10z"/>
<path d="M1480 2172 c0 -5 7 -9 15 -9 8 0 12 4 9 9 -3 4 -9 8 -15 8 -5 0 -9
-4 -9 -8z"/>
<path d="M768 2151 c-16 -19 -14 -66 3 -77 5 -3 6 3 2 12 -4 12 -3 15 5 10 7
-4 12 -2 12 4 0 6 4 9 9 6 5 -3 11 3 14 14 3 11 1 18 -4 14 -5 -3 -9 1 -10 8
0 7 -5 2 -11 -12 -6 -14 -12 -20 -15 -13 -2 7 1 21 7 32 13 26 9 27 -12 2z"/>
<path d="M2165 2160 c3 -5 8 -10 11 -10 2 0 4 5 4 10 0 6 -5 10 -11 10 -5 0
-7 -4 -4 -10z"/>
<path d="M726 2143 c-6 -14 -5 -15 5 -6 7 7 10 15 7 18 -3 3 -9 -2 -12 -12z"/>
<path d="M836 2143 c-6 -14 -5 -15 5 -6 7 7 10 15 7 18 -3 3 -9 -2 -12 -12z"/>
<path d="M2030 2150 c0 -5 5 -10 10 -10 6 0 10 5 10 10 0 6 -4 10 -10 10 -5 0
-10 -4 -10 -10z"/>
<path d="M1450 2139 c0 -5 5 -7 10 -4 6 3 10 8 10 11 0 2 -4 4 -10 4 -5 0 -10
-5 -10 -11z"/>
<path d="M1990 2130 c0 -5 5 -10 11 -10 5 0 7 5 4 10 -3 6 -8 10 -11 10 -2 0
-4 -4 -4 -10z"/>
<path d="M2115 2130 c3 -5 12 -7 20 -3 21 7 19 13 -6 13 -11 0 -18 -4 -14 -10z"/>
<path d="M2072 2111 c7 -12 19 -21 26 -21 17 0 7 17 -19 31 -18 9 -19 9 -7
-10z"/>
<path d="M730 2106 c0 -8 4 -17 8 -20 4 -2 8 4 8 15 0 10 -4 19 -8 19 -4 0 -8
-6 -8 -14z"/>
<path d="M1290 2111 c0 -6 -6 -8 -14 -5 -8 3 -36 -4 -62 -16 -26 -13 -54 -23
-61 -24 -23 -4 -93 -61 -92 -76 0 -10 2 -11 6 -2 7 17 38 15 53 -3 7 -8 17
-15 22 -15 6 0 5 7 -2 15 -11 13 -7 15 23 15 22 0 37 -6 41 -15 3 -8 11 -15
18 -14 10 0 10 2 1 6 -20 7 -15 23 6 23 15 0 19 5 16 23 -4 18 0 17 25 -13 15
-19 32 -32 36 -27 4 4 2 7 -4 7 -7 0 -12 7 -12 15 0 8 -4 15 -9 15 -5 0 -11 7
-15 15 -3 9 0 15 10 15 8 0 13 -4 10 -9 -5 -7 83 -71 97 -71 4 0 -5 12 -19 27
-14 15 -22 33 -20 40 3 8 -2 13 -14 13 -11 0 -20 4 -20 10 0 5 10 8 23 6 14
-2 22 -10 22 -22 0 -14 8 -19 30 -20 58 -2 62 -4 42 -15 -13 -8 -22 -7 -34 3
-15 12 -15 11 -2 -9 14 -23 29 -30 29 -15 0 13 33 11 50 -2 10 -7 9 -1 -4 19
-11 17 -25 34 -32 38 -8 4 -19 18 -25 30 -10 19 -7 18 19 -6 22 -21 31 -25 36
-15 4 9 5 9 4 -2 -2 -17 27 -75 41 -84 5 -3 7 4 4 16 -4 19 -3 20 6 8 6 -9 11
-10 11 -3 0 6 -12 21 -27 32 -20 15 -22 19 -8 14 29 -9 46 -24 67 -58 11 -19
18 -24 18 -13 0 9 -12 31 -26 48 l-27 31 29 -7 29 -7 -19 22 c-19 21 -43 30
-31 11 8 -14 -8 -13 -22 1 -6 6 -26 13 -44 15 -18 2 -36 9 -40 15 -4 7 -15 9
-24 5 -9 -3 -25 -1 -36 4 -24 13 -24 7 -2 -16 16 -16 16 -16 -7 -9 -14 4 -27
12 -29 17 -2 5 -13 1 -25 -10 -26 -24 -77 -35 -69 -15 3 7 8 13 12 14 45 5 71
22 52 33 -6 4 -11 3 -11 -3z m-77 -75 c21 -16 22 -23 3 -23 -8 0 -15 3 -14 6
2 19 -4 21 -18 6 -11 -11 -20 -13 -27 -6 -5 5 -17 7 -26 4 -14 -4 -14 -3 -1 6
8 6 23 8 34 5 12 -4 16 -2 12 5 -10 15 15 13 37 -3z"/>
<path d="M1700 2100 c0 -5 5 -10 11 -10 5 0 7 5 4 10 -3 6 -8 10 -11 10 -2 0
-4 -4 -4 -10z"/>
<path d="M812 2050 c0 -14 2 -19 5 -12 2 6 2 18 0 25 -3 6 -5 1 -5 -13z"/>
<path d="M1577 2062 c-4 -5 -1 -12 5 -15 10 -3 10 -7 1 -17 -9 -10 -9 -19 3
-41 8 -16 19 -29 24 -29 13 0 13 17 0 25 -5 3 -10 11 -10 17 0 6 7 5 17 -3 15
-12 16 -12 9 6 -7 20 -7 20 11 0 10 -11 23 -32 30 -46 9 -22 8 -30 -5 -45 -16
-17 -16 -17 3 -4 11 8 21 15 23 16 2 1 -1 11 -7 23 -6 11 -7 22 -2 25 23 15
28 -56 5 -78 -8 -9 -12 -16 -7 -16 17 0 33 24 33 47 0 53 -64 133 -87 109 -3
-3 -13 4 -23 16 -11 13 -19 17 -23 10z"/>
<path d="M2231 2054 c0 -11 3 -14 6 -6 3 7 2 16 -1 19 -3 4 -6 -2 -5 -13z"/>
<path d="M2045 2050 c-3 -5 -1 -10 4 -10 6 0 11 5 11 10 0 6 -2 10 -4 10 -3 0
-8 -4 -11 -10z"/>
<path d="M2185 2050 c3 -5 8 -10 11 -10 2 0 4 5 4 10 0 6 -5 10 -11 10 -5 0
-7 -4 -4 -10z"/>
<path d="M2380 2035 c0 -5 5 -17 10 -25 9 -13 10 -13 11 0 0 10 3 9 10 -5 7
-17 8 -17 6 -2 -1 10 -6 17 -11 17 -5 -1 -13 4 -17 12 -5 7 -9 9 -9 3z"/>
<path d="M1742 2010 c7 -11 17 -20 22 -20 5 0 1 9 -9 20 -10 11 -20 20 -22 20
-2 0 2 -9 9 -20z"/>
<path d="M1960 2000 c11 -16 18 -36 14 -47 -5 -17 -5 -17 6 -1 7 12 8 24 1 37
-6 10 -8 21 -5 23 3 3 -4 8 -16 11 l-20 5 20 -28z"/>
<path d="M2200 2025 c0 -2 10 -10 23 -16 20 -11 21 -11 8 4 -13 16 -31 23 -31
12z"/>
<path d="M2034 2012 c-16 -10 -49 -76 -34 -67 8 5 11 3 9 -4 -3 -7 -7 -11 -10
-9 -3 2 -13 -3 -21 -9 -18 -15 -28 -7 -28 21 -1 27 -39 76 -47 58 -3 -9 -9
-10 -17 -3 -7 6 -17 6 -26 1 -12 -8 -11 -10 6 -10 12 0 27 -7 34 -15 6 -8 17
-13 23 -12 7 1 12 -11 12 -28 0 -16 6 -30 13 -31 6 -1 15 -2 19 -3 3 0 -2 -10
-12 -21 -22 -24 -13 -27 10 -3 9 9 31 18 48 21 44 6 165 4 203 -4 19 -3 34 -1
38 5 5 7 -4 11 -23 11 -17 0 -31 4 -31 10 0 5 -15 8 -32 6 -18 -2 -39 1 -47 7
-12 10 -13 9 -7 -2 6 -9 5 -12 -5 -9 -8 3 -13 11 -11 17 1 7 -1 10 -6 7 -10
-6 -62 -16 -62 -12 0 2 9 13 20 26 11 13 20 20 20 15 0 -4 6 -2 14 4 8 6 18
11 22 10 5 -1 18 -1 28 0 20 1 20 1 0 16 -23 17 -38 19 -28 4 6 -10 -6 -9 -51
7 -5 2 -15 0 -21 -4z m-4 -52 c0 -5 -4 -10 -10 -10 -5 0 -10 5 -10 10 0 6 5
10 10 10 6 0 10 -4 10 -10z"/>
<path d="M1800 1997 c0 -2 17 -18 39 -35 36 -29 38 -29 27 -7 -6 13 -13 22
-15 19 -2 -2 -15 3 -28 11 -13 9 -23 14 -23 12z"/>
<path d="M2168 1993 c6 -2 18 -2 25 0 6 3 1 5 -13 5 -14 0 -19 -2 -12 -5z"/>
<path d="M1630 1971 c0 -11 4 -22 9 -25 4 -3 6 6 3 19 -5 30 -12 33 -12 6z"/>
<path d="M1720 1955 c0 -19 2 -35 4 -35 2 0 6 16 8 35 2 19 0 35 -4 35 -4 0
-8 -16 -8 -35z"/>
<path d="M1087 1961 c2 -9 16 -22 31 -28 l27 -13 -23 20 c-13 11 -21 23 -18
28 3 5 -1 9 -8 9 -7 0 -11 -7 -9 -16z"/>
<path d="M1755 1970 c3 -5 8 -10 11 -10 2 0 4 5 4 10 0 6 -5 10 -11 10 -5 0
-7 -4 -4 -10z"/>
<path d="M2120 1956 c14 -8 34 -15 44 -16 23 0 13 13 -12 16 -9 1 -26 5 -37 8
-13 5 -11 2 5 -8z"/>
<path d="M1180 1945 c0 -9 9 -15 21 -15 18 0 19 2 5 15 -8 8 -17 15 -20 15 -3
0 -6 -7 -6 -15z"/>
<path d="M1247 1949 c7 -7 15 -10 18 -7 3 3 -2 9 -12 12 -14 6 -15 5 -6 -5z"/>
<path d="M1893 1930 c6 -16 15 -30 19 -30 5 0 2 14 -7 30 -9 17 -17 30 -19 30
-3 0 1 -13 7 -30z"/>
<path d="M1772 1920 c0 -19 2 -27 5 -17 2 9 2 25 0 35 -3 9 -5 1 -5 -18z"/>
<path d="M1830 1906 c0 -2 7 -7 16 -10 8 -3 12 -2 9 4 -6 10 -25 14 -25 6z"/>
<path d="M1791 1884 c0 -11 3 -14 6 -6 3 7 2 16 -1 19 -3 4 -6 -2 -5 -13z"/>
<path d="M1826 1875 c4 -8 8 -15 10 -15 2 0 4 7 4 15 0 8 -4 15 -10 15 -5 0
-7 -7 -4 -15z"/>
<path d="M1900 1878 c0 -22 13 -23 30 -3 9 10 9 15 1 15 -6 0 -11 -6 -11 -12
0 -9 -4 -8 -10 2 -8 13 -10 12 -10 -2z"/>
<path d="M2255 1879 c-17 -6 -17 -8 -2 -8 10 -1 17 -9 17 -21 0 -23 18 -27 26
-5 9 22 -18 43 -41 34z"/>
<path d="M2752 1870 c0 -14 2 -19 5 -12 2 6 2 18 0 25 -3 6 -5 1 -5 -13z"/>
<path d="M1430 1840 c-9 -13 -16 -16 -21 -8 -10 17 -29 0 -29 -27 0 -29 44
-66 68 -58 28 10 42 25 42 44 0 24 12 24 27 0 6 -10 23 -21 36 -23 22 -4 24
-3 14 13 -6 10 -13 17 -16 17 -4 0 -13 0 -21 1 -13 1 -13 2 0 11 14 9 12 11
-20 14 -8 0 -14 6 -13 12 1 7 -6 10 -18 7 -12 -3 -24 -1 -28 5 -5 8 -12 5 -21
-8z m0 -51 c0 -5 -4 -9 -10 -9 -5 0 -10 7 -10 16 0 8 5 12 10 9 6 -3 10 -10
10 -16z m50 17 c0 -3 -4 -8 -10 -11 -5 -3 -10 -1 -10 4 0 6 5 11 10 11 6 0 10
-2 10 -4z"/>
<path d="M1250 1830 c-8 -5 -10 -10 -5 -10 6 0 17 5 25 10 8 5 11 10 5 10 -5
0 -17 -5 -25 -10z"/>
<path d="M1290 1808 c-30 -11 -58 -24 -61 -30 -4 -7 -9 -6 -13 1 -9 14 -46 14
-46 0 0 -6 8 -8 19 -4 11 3 22 1 26 -5 8 -12 29 -7 103 26 84 38 66 46 -28 12z"/>
<path d="M2278 1807 c6 -7 9 -31 7 -53 l-5 -39 13 40 c15 45 12 65 -10 65 -12
0 -13 -3 -5 -13z"/>
<path d="M2938 1813 c7 -3 16 -2 19 1 4 3 -2 6 -13 5 -11 0 -14 -3 -6 -6z"/>
<path d="M2148 1784 c-4 -5 -24 -11 -45 -12 -21 -2 -39 -7 -41 -12 -2 -5 -10
-6 -18 -3 -12 4 -13 0 -4 -23 16 -41 29 -54 55 -54 30 0 48 24 43 54 -7 37 19
21 32 -19 6 -18 17 -36 25 -39 14 -5 33 12 33 29 0 18 -39 65 -53 65 -7 0 -15
5 -17 12 -3 7 -7 8 -10 2z m-28 -59 c0 -14 -6 -25 -13 -25 -8 0 -13 9 -11 23
3 28 2 27 14 27 6 0 10 -11 10 -25z"/>
<path d="M1985 1758 c-16 -12 -33 -27 -37 -33 -13 -17 -4 -38 16 -41 10 -1 22
-6 25 -11 3 -4 15 -9 26 -10 11 0 31 -4 45 -7 14 -3 39 -9 55 -12 17 -3 42
-17 57 -31 l27 -26 -6 24 c-4 13 -11 27 -17 31 -7 5 -4 8 7 8 9 0 17 5 17 10
0 6 -9 10 -20 10 -12 0 -20 7 -21 18 0 13 -2 12 -9 -5 -6 -15 -18 -23 -33 -23
-25 0 -107 24 -145 43 -22 10 -22 12 -6 24 10 7 26 13 35 13 12 0 17 7 16 20
-1 11 -1 20 -2 20 0 0 -13 -10 -30 -22z"/>
<path d="M1640 1755 c0 -8 4 -15 10 -15 5 0 7 7 4 15 -4 8 -8 15 -10 15 -2 0
-4 -7 -4 -15z"/>
<path d="M1878 1763 c-10 -2 -18 -8 -18 -13 0 -5 6 -7 13 -5 9 4 11 -10 9 -54
-2 -33 1 -69 8 -80 9 -18 8 -21 -12 -22 -17 -1 -19 -2 -5 -6 9 -2 14 -9 11
-14 -3 -6 1 -18 9 -27 8 -9 18 -31 21 -48 4 -17 18 -46 32 -65 37 -51 30 -109
-19 -152 -11 -9 -18 -20 -14 -23 12 -12 56 44 67 85 10 39 9 47 -19 105 -17
34 -31 69 -31 77 0 9 -7 24 -15 35 -19 25 -19 34 3 34 15 1 15 2 -2 11 -14 9
-15 13 -5 19 10 7 10 11 0 24 -7 9 -13 39 -12 71 0 30 -1 54 -2 54 -1 -1 -10
-3 -19 -6z"/>
<path d="M1264 1751 c4 -6 16 -11 27 -11 11 0 18 -3 16 -7 -3 -5 5 -9 16 -9
12 -1 47 -2 77 -4 30 -1 61 -8 69 -14 11 -8 13 -8 8 0 -4 7 5 14 26 18 17 4
33 2 35 -3 3 -10 52 10 52 22 0 4 -19 5 -42 2 -142 -19 -165 -18 -272 12 -12
3 -16 1 -12 -6z"/>
<path d="M1172 1741 c-11 -7 -10 -10 3 -15 22 -8 22 -8 22 9 0 17 -6 18 -25 6z"/>
<path d="M519 1709 c-21 -18 -24 -29 -24 -87 1 -46 7 -81 22 -112 11 -25 24
-56 28 -70 11 -35 51 -106 91 -161 30 -41 40 -48 80 -54 40 -6 52 -3 78 16 17
13 40 34 51 48 20 25 30 87 16 95 -4 3 -8 -8 -9 -24 -1 -33 -18 -70 -33 -70
-6 0 -6 6 -1 18 5 9 7 23 5 30 -3 7 0 19 7 27 9 11 7 12 -9 8 -24 -6 -26 2 -6
37 l14 25 1 -24 c0 -16 3 -22 10 -15 5 5 6 22 2 37 l-7 28 -19 -32 c-10 -17
-21 -27 -25 -23 -11 16 -50 34 -73 34 -13 0 -36 11 -52 25 -16 14 -31 25 -33
25 -9 0 20 -42 33 -47 8 -3 14 -11 14 -19 0 -17 12 -18 28 -2 9 9 16 8 30 -5
10 -9 24 -17 31 -17 8 0 10 -11 5 -35 -5 -28 -3 -35 10 -35 12 0 15 -8 14 -32
-4 -40 -13 -48 -56 -48 -87 0 -134 70 -72 107 27 16 42 43 23 43 -12 -1 -60
-45 -65 -61 -9 -24 -97 184 -112 263 -7 40 21 127 32 98 3 -8 12 -20 21 -26
12 -9 15 -29 12 -92 -2 -65 2 -91 18 -128 25 -56 36 -55 16 1 -8 22 -14 68
-15 103 0 53 3 62 18 62 9 0 30 -12 46 -26 15 -15 39 -26 52 -26 20 0 25 -5
23 -22 -3 -27 11 -57 22 -50 5 3 12 -2 16 -11 3 -10 0 -20 -6 -25 -9 -5 -8
-12 6 -25 17 -18 18 -18 21 8 2 14 -9 54 -25 87 -22 49 -33 63 -55 67 -36 7
-43 30 -16 55 21 18 21 18 -9 -1 -32 -22 -53 -27 -53 -13 0 4 -22 26 -49 49
l-49 42 -23 -20z m106 -69 c3 -5 -1 -10 -9 -10 -9 0 -16 5 -16 10 0 6 4 10 9
10 6 0 13 -4 16 -10z"/>
<path d="M1755 1710 c-3 -5 -2 -10 4 -10 5 0 13 5 16 10 3 6 2 10 -4 10 -5 0
-13 -4 -16 -10z"/>
<path d="M2989 1692 c-3 -20 -2 -29 4 -23 5 5 7 19 5 32 -3 20 -5 19 -9 -9z"/>
<path d="M1855 1701 c-3 -5 -2 -12 3 -15 5 -3 9 1 9 9 0 17 -3 19 -12 6z"/>
<path d="M2282 1685 c0 -16 2 -22 5 -12 2 9 2 23 0 30 -3 6 -5 -1 -5 -18z"/>
<path d="M540 1638 c0 -36 4 -35 14 5 4 16 2 27 -4 27 -5 0 -10 -14 -10 -32z"/>
<path d="M730 1655 c-8 -9 -8 -15 -2 -15 12 0 26 19 19 26 -2 2 -10 -2 -17
-11z"/>
<path d="M830 1652 c0 -11 8 -26 18 -33 14 -11 15 -11 5 0 -6 7 -9 19 -7 26 3
7 1 16 -5 20 -6 3 -11 -2 -11 -13z"/>
<path d="M2205 1650 c-3 -11 -1 -28 5 -37 10 -15 10 -14 6 9 -5 20 -2 27 11
30 17 3 17 4 1 10 -12 5 -19 1 -23 -12z"/>
<path d="M2741 1654 c0 -11 3 -14 6 -6 3 7 2 16 -1 19 -3 4 -6 -2 -5 -13z"/>
<path d="M781 1637 c-1 -11 -6 -15 -13 -11 -7 5 -8 3 -3 -5 10 -16 29 2 22 21
-4 8 -6 7 -6 -5z"/>
<path d="M824 1585 c-9 -35 2 -55 28 -54 l23 2 -22 4 c-17 3 -23 11 -23 29 0
14 4 23 9 19 5 -3 12 -1 15 4 3 5 -1 11 -9 15 -10 3 -17 -3 -21 -19z"/>
<path d="M1940 1550 c6 -11 13 -20 16 -20 2 0 0 9 -6 20 -6 11 -13 20 -16 20
-2 0 0 -9 6 -20z"/>
<path d="M2286 1543 c4 -16 11 -32 15 -37 14 -15 10 -69 -6 -90 -8 -11 -15
-24 -15 -30 0 -5 7 -1 15 10 14 18 14 18 8 -3 -3 -13 -10 -23 -15 -23 -6 0 -7
-11 -4 -25 4 -14 2 -25 -4 -25 -5 0 -7 -14 -5 -32 4 -26 3 -29 -4 -13 -10 20
-10 20 -11 0 -2 -30 -6 -45 -26 -108 -14 -44 -15 -60 -6 -69 9 -9 12 -9 12 1
0 7 5 9 13 5 7 -5 6 0 -3 11 -8 10 -10 16 -4 12 7 -4 15 18 24 60 7 36 21 94
31 127 21 68 24 161 8 219 -11 42 -33 52 -23 10z"/>
<path d="M680 1543 c0 -4 5 -15 10 -23 8 -13 10 -13 10 2 0 9 -4 20 -10 23 -5
3 -10 3 -10 -2z"/>
<path d="M1828 1523 c7 -3 16 -2 19 1 4 3 -2 6 -13 5 -11 0 -14 -3 -6 -6z"/>
<path d="M2830 1526 c0 -2 8 -10 18 -17 15 -13 16 -12 3 4 -13 16 -21 21 -21
13z"/>
<path d="M1625 1487 c-55 -30 -79 -111 -51 -166 9 -17 21 -31 26 -31 6 0 3 12
-6 26 -14 20 -15 34 -8 72 6 27 14 46 21 45 8 -2 10 4 6 14 -5 12 -2 15 9 10
10 -3 19 0 22 9 3 9 10 12 16 9 5 -3 10 -2 10 3 0 16 -25 21 -45 9z"/>
<path d="M811 1474 c0 -11 3 -14 6 -6 3 7 2 16 -1 19 -3 4 -6 -2 -5 -13z"/>
<path d="M1101 1464 c0 -11 3 -14 6 -6 3 7 2 16 -1 19 -3 4 -6 -2 -5 -13z"/>
<path d="M1680 1469 c0 -5 5 -7 10 -4 6 3 10 8 10 11 0 2 -4 4 -10 4 -5 0 -10
-5 -10 -11z"/>
<path d="M2036 1435 c4 -8 8 -15 10 -15 2 0 4 7 4 15 0 8 -4 15 -10 15 -5 0
-7 -7 -4 -15z"/>
<path d="M940 1429 c0 -5 5 -7 10 -4 6 3 10 8 10 11 0 2 -4 4 -10 4 -5 0 -10
-5 -10 -11z"/>
<path d="M1660 1365 c-17 -21 -7 -29 35 -29 44 0 55 12 31 30 -26 18 -50 18
-66 -1z"/>
<path d="M874 1349 c-3 -6 -1 -16 6 -22 10 -9 11 -9 6 1 -5 7 -1 12 9 12 9 0
13 5 10 10 -8 13 -22 13 -31 -1z"/>
<path d="M1874 1341 c-42 -26 -49 -39 -18 -33 14 2 28 11 31 18 3 8 9 12 13 9
4 -3 13 2 20 10 18 22 -7 20 -46 -4z"/>
<path d="M1750 1340 c0 -5 5 -10 11 -10 5 0 7 5 4 10 -3 6 -8 10 -11 10 -2 0
-4 -4 -4 -10z"/>
<path d="M705 1330 c27 -12 35 -12 35 0 0 6 -12 10 -27 9 -25 0 -26 -1 -8 -9z"/>
<path d="M750 1300 c0 -5 5 -10 11 -10 5 0 7 5 4 10 -3 6 -8 10 -11 10 -2 0
-4 -4 -4 -10z"/>
<path d="M895 1300 c3 -5 8 -10 11 -10 2 0 4 5 4 10 0 6 -5 10 -11 10 -5 0 -7
-4 -4 -10z"/>
<path d="M864 1258 c3 -24 7 -51 8 -60 1 -10 5 -18 9 -18 8 0 59 -102 59 -118
0 -7 5 -12 11 -12 6 0 9 6 6 13 -15 41 -18 59 -9 53 6 -4 8 2 4 16 -5 20 -6
21 -12 3 -5 -13 -9 -15 -14 -6 -4 6 -3 18 4 26 8 10 8 15 -1 21 -8 5 -9 3 -4
-6 5 -8 3 -11 -6 -8 -8 3 -13 15 -12 27 2 13 -1 20 -7 16 -6 -3 -10 1 -10 9 0
9 6 16 13 16 8 0 14 7 14 15 0 8 -4 15 -9 15 -4 0 -8 -4 -8 -10 0 -5 -6 -10
-13 -10 -8 0 -12 11 -11 30 1 17 -3 30 -8 30 -6 0 -8 -17 -4 -42z"/>
<path d="M940 1250 c0 -5 5 -10 11 -10 5 0 7 5 4 10 -3 6 -8 10 -11 10 -2 0
-4 -4 -4 -10z"/>
<path d="M1870 1250 c-8 -5 -12 -12 -9 -15 4 -3 12 1 19 10 14 17 11 19 -10 5z"/>
<path d="M1900 1216 c8 -22 8 -31 -2 -38 -11 -6 -11 -8 0 -8 7 0 11 -4 7 -9
-3 -5 -1 -12 4 -15 5 -3 11 1 15 9 3 8 1 15 -3 15 -5 0 -7 8 -5 18 3 9 -2 26
-11 37 -14 19 -15 18 -5 -9z"/>
<path d="M1756 1217 c3 -10 9 -15 12 -12 3 3 0 11 -7 18 -10 9 -11 8 -5 -6z"/>
<path d="M1523 1175 c-10 -11 -9 -13 6 -12 11 1 17 7 14 14 -6 16 -5 16 -20
-2z"/>
<path d="M1022 1149 c12 -35 16 -36 16 -5 0 14 -6 27 -14 30 -10 4 -10 -1 -2
-25z"/>
<path d="M1091 1155 c0 -11 6 -33 14 -50 l14 -30 -6 30 c-3 17 -10 39 -14 50
-8 20 -8 20 -8 0z"/>
<path d="M1941 1147 c-1 -19 3 -26 11 -21 8 5 9 2 5 -9 -4 -12 -1 -17 9 -17
11 0 14 6 10 16 -3 9 -6 22 -6 30 0 9 -4 13 -9 10 -5 -4 -12 0 -14 6 -3 7 -6
0 -6 -15z"/>
<path d="M850 1151 c0 -5 5 -13 10 -16 6 -3 10 -2 10 4 0 5 -4 13 -10 16 -5 3
-10 2 -10 -4z"/>
<path d="M1750 1152 c0 -14 11 -21 26 -15 8 3 11 9 8 14 -7 11 -34 12 -34 1z"/>
<path d="M2307 1119 c4 -13 8 -18 11 -10 2 7 -1 18 -6 23 -8 8 -9 4 -5 -13z"/>
<path d="M1012 1110 c0 -14 2 -19 5 -12 2 6 2 18 0 25 -3 6 -5 1 -5 -13z"/>
<path d="M1660 1118 c-14 -6 -49 -21 -78 -34 -29 -13 -65 -24 -81 -24 -15 0
-36 -9 -46 -20 -18 -20 -18 -20 13 -14 17 4 39 3 49 -1 20 -9 26 -11 63 -21
l25 -6 -23 16 c-12 10 -31 18 -42 19 -28 2 -25 17 3 17 12 0 34 6 49 14 20 11
28 11 32 3 2 -7 5 -4 5 5 1 20 49 48 70 40 8 -3 11 0 7 7 -8 13 -13 13 -46 -1z"/>
<path d="M1720 1121 c0 -10 30 -24 37 -17 3 2 -5 9 -16 16 -12 6 -21 7 -21 1z"/>
<path d="M881 1104 c0 -11 3 -14 6 -6 3 7 2 16 -1 19 -3 4 -6 -2 -5 -13z"/>
<path d="M1787 1105 c-9 -7 -17 -18 -17 -26 1 -10 4 -9 14 4 7 9 24 17 36 17
13 0 20 3 16 7 -12 12 -31 11 -49 -2z"/>
<path d="M2551 1104 c0 -11 3 -14 6 -6 3 7 2 16 -1 19 -3 4 -6 -2 -5 -13z"/>
<path d="M2021 1094 c0 -11 3 -14 6 -6 3 7 2 16 -1 19 -3 4 -6 -2 -5 -13z"/>
<path d="M962 1090 c0 -8 4 -26 8 -40 6 -20 8 -21 8 -5 0 11 -3 29 -8 40 -5
12 -8 14 -8 5z"/>
<path d="M2199 1088 c-1 -2 -3 -16 -5 -32 -2 -16 -15 -40 -29 -53 -25 -24 -34
-40 -15 -28 6 4 10 -5 10 -19 0 -42 15 -30 32 27 25 83 29 107 18 107 -5 0
-11 -1 -11 -2z"/>
<path d="M926 1045 c3 -16 15 -38 25 -49 27 -24 15 -34 -13 -10 -12 10 -18 14
-15 7 4 -6 4 -18 1 -27 -9 -24 -34 -1 -35 33 l-2 26 -4 -25 c-3 -14 -10 -29
-17 -33 -7 -6 -5 -7 6 -4 9 3 19 -1 22 -10 4 -8 12 -13 20 -10 17 7 45 -23 39
-40 -7 -19 -23 -16 -24 5 0 11 -2 12 -6 4 -3 -7 2 -21 12 -32 13 -14 13 -19 3
-24 -7 -3 -3 -3 10 0 12 3 22 1 22 -5 0 -6 -4 -11 -9 -11 -5 0 -4 -11 2 -25
16 -34 29 -32 16 3 -8 22 -8 25 3 14 7 -7 13 -32 13 -57 l0 -44 -23 27 c-12
15 -36 46 -53 70 -16 23 -37 42 -46 42 -14 0 -14 -2 1 -22 9 -13 25 -36 35
-51 13 -20 20 -24 24 -15 4 9 6 7 6 -4 1 -10 6 -18 12 -18 5 0 7 -6 3 -12 -4
-7 -4 -10 0 -6 8 7 52 -33 49 -44 -2 -4 6 -12 17 -18 11 -6 18 -15 15 -19 -2
-5 3 -8 13 -7 11 1 16 -6 16 -17 -1 -10 0 -16 3 -13 10 10 44 -15 37 -26 -4
-6 -3 -8 3 -5 6 4 14 0 17 -9 3 -8 10 -12 16 -9 5 3 10 1 10 -5 0 -6 5 -8 10
-5 6 3 10 1 10 -5 0 -6 4 -9 9 -5 6 3 14 -2 19 -11 5 -9 12 -15 15 -15 23 3
35 -2 61 -24 16 -13 34 -22 40 -18 6 4 6 0 -2 -9 -10 -13 -9 -15 10 -11 22 4
75 -31 76 -50 0 -5 4 -12 8 -15 4 -4 4 -1 0 6 -9 15 6 16 21 1 6 -6 9 -19 6
-28 -3 -11 -2 -13 4 -3 7 9 17 10 39 2 26 -9 117 -21 244 -33 19 -2 37 -1 40
3 3 3 23 17 45 30 58 34 85 61 85 84 -1 21 -1 21 -12 1 -15 -26 -34 -45 -46
-45 -5 0 -26 -12 -47 -26 -29 -19 -40 -22 -46 -13 -4 7 -4 20 0 28 5 9 6 21 4
27 -2 7 5 10 20 7 14 -3 28 1 32 8 6 9 3 11 -8 6 -10 -3 -17 -2 -17 3 0 6 11
10 24 10 13 0 27 7 30 16 4 10 2 13 -7 7 -6 -4 -21 -9 -32 -10 -10 -2 -22 -7
-25 -11 -3 -4 -15 -13 -27 -20 -17 -9 -23 -9 -23 -1 0 8 -7 6 -18 -4 -10 -10
-26 -17 -34 -17 -9 0 -19 -12 -22 -26 -7 -25 -8 -26 -68 -19 -88 10 -190 58
-170 80 4 5 2 5 -4 2 -6 -3 -20 2 -30 11 -10 10 -23 20 -29 21 -38 12 -55 23
-69 43 -9 13 -12 24 -7 26 17 6 -19 78 -39 78 -10 0 -16 -4 -14 -8 7 -11 -8
-10 -26 2 -13 9 -12 12 4 25 19 15 19 15 -2 15 -24 0 -30 15 -9 23 10 4 10 6
0 6 -7 1 -13 7 -13 15 0 9 7 12 19 9 12 -3 17 -11 14 -19 -3 -8 -1 -14 4 -14
9 0 10 21 5 69 -1 8 -10 11 -22 8 -20 -5 -53 17 -63 43 -4 12 -6 11 -6 -2 -2
-44 -58 -1 -86 65 -8 21 -21 36 -28 35 -16 -4 -72 40 -63 49 3 3 17 -4 31 -17
21 -20 27 -21 38 -10 7 8 8 10 1 7 -7 -4 -17 0 -24 8 -10 12 -10 15 1 15 10 0
10 3 2 11 -6 6 -9 18 -6 25 3 9 -2 14 -14 14 -11 0 -24 11 -31 28 l-12 27 6
-30z m76 -165 c16 -17 33 -42 38 -55 5 -14 13 -25 17 -24 20 3 53 -15 53 -28
0 -10 6 -12 19 -8 25 8 35 -9 21 -35 -8 -15 -8 -20 2 -20 19 0 -8 -23 -32 -27
-12 -2 -20 3 -20 12 0 8 -4 15 -9 15 -5 0 -11 8 -15 18 -3 9 -9 24 -13 32 -5
13 -4 13 10 1 11 -8 17 -9 17 -3 0 13 -39 36 -47 29 -2 -3 1 -15 7 -27 10 -18
9 -21 -2 -17 -7 2 -12 9 -11 15 1 5 -4 13 -12 16 -24 9 -17 -8 15 -39 16 -15
27 -32 24 -36 -3 -5 2 -6 10 -3 10 4 16 1 16 -7 1 -19 48 -52 62 -43 6 4 8 3
5 -3 -4 -6 5 -15 18 -21 14 -7 25 -19 25 -28 0 -14 3 -14 15 -4 12 10 13 15 3
28 -11 13 -10 14 2 10 8 -2 16 -11 16 -19 1 -8 3 -16 4 -19 6 -16 9 -50 5 -50
-14 0 -55 34 -55 46 0 7 -5 16 -12 20 -8 5 -9 2 -5 -9 9 -25 -6 -21 -33 8 -13
14 -28 25 -33 25 -6 0 -30 21 -54 46 -55 59 -69 109 -30 109 5 0 12 6 15 14 3
8 0 11 -7 7 -6 -4 -11 -3 -11 1 0 5 -13 23 -30 41 -27 30 -39 62 -24 62 4 0
20 -14 36 -30z m163 -210 c4 -6 -6 -10 -22 -10 -22 0 -25 2 -13 10 19 12 27
12 35 0z m556 -247 c0 -5 2 -18 3 -30 3 -25 -21 -40 -38 -23 -5 5 -18 10 -28
10 -20 0 -21 1 -12 24 3 9 10 14 14 11 5 -3 11 -1 15 5 7 12 45 14 46 3z"/>
<path d="M1090 737 c0 -18 28 -42 37 -33 9 8 -9 38 -25 44 -7 2 -12 -3 -12
-11z"/>
<path d="M1220 580 c0 -5 5 -10 11 -10 5 0 7 5 4 10 -3 6 -8 10 -11 10 -2 0
-4 -4 -4 -10z"/>
<path d="M1700 410 c0 -5 5 -10 11 -10 5 0 7 5 4 10 -3 6 -8 10 -11 10 -2 0
-4 -4 -4 -10z"/>
<path d="M1072 1053 c8 -10 14 -24 12 -31 -1 -7 0 -8 3 -2 3 7 10 7 21 -2 11
-9 10 -5 -3 14 -11 15 -26 30 -34 33 -12 5 -12 2 1 -12z"/>
<path d="M1115 1055 c4 -11 10 -30 12 -42 6 -24 33 -53 33 -35 0 6 -4 14 -10
17 -5 3 -10 14 -10 23 0 9 -8 26 -17 37 -16 20 -16 20 -8 0z"/>
<path d="M1640 1066 c0 -2 7 -6 15 -10 8 -3 15 -1 15 4 0 6 -7 10 -15 10 -8 0
-15 -2 -15 -4z"/>
<path d="M1819 1054 c-24 -13 -23 -13 14 -14 20 0 37 4 37 9 0 16 -26 19 -51
5z"/>
<path d="M2037 1050 c-3 -11 -2 -22 2 -24 4 -3 8 6 9 20 2 29 -4 31 -11 4z"/>
<path d="M1043 1035 c0 -8 4 -15 9 -15 4 0 8 4 8 9 0 6 -4 12 -8 15 -5 3 -9
-1 -9 -9z"/>
<path d="M2167 1031 c-4 -17 -3 -21 5 -13 5 5 8 16 6 23 -3 8 -7 3 -11 -10z"/>
<path d="M1906 1020 c20 -21 54 -19 54 3 0 6 -3 8 -6 5 -3 -4 -20 -2 -37 3
l-31 9 20 -20z"/>
<path d="M1005 1003 c8 -18 15 -43 15 -57 0 -14 5 -28 10 -31 6 -4 10 6 9 22
-1 28 -16 86 -18 69 -1 -6 -8 -1 -16 10 -14 17 -14 16 0 -13z"/>
<path d="M1180 1021 c0 -6 4 -13 10 -16 6 -3 7 1 4 9 -7 18 -14 21 -14 7z"/>
<path d="M2253 1003 c1 -18 6 -28 10 -24 4 4 3 18 -2 32 -9 23 -9 22 -8 -8z"/>
<path d="M1880 996 c0 -19 4 -23 20 -19 20 5 20 7 4 24 -22 24 -24 24 -24 -5z"/>
<path d="M1056 997 c3 -10 9 -15 12 -12 3 3 0 11 -7 18 -10 9 -11 8 -5 -6z"/>
<path d="M1721 984 c0 -11 3 -14 6 -6 3 7 2 16 -1 19 -3 4 -6 -2 -5 -13z"/>
<path d="M1187 961 c-4 -17 -3 -21 5 -13 5 5 8 16 6 23 -3 8 -7 3 -11 -10z"/>
<path d="M1756 935 c4 -8 10 -15 15 -15 4 0 6 7 3 15 -4 8 -10 15 -15 15 -4 0
-6 -7 -3 -15z"/>
<path d="M2087 895 c-15 -30 -22 -55 -17 -55 6 0 13 8 16 18 3 9 13 31 22 49
9 18 14 35 11 37 -3 3 -17 -19 -32 -49z"/>
<path d="M2140 930 c0 -14 -13 -48 -29 -77 -16 -28 -23 -49 -15 -46 7 2 15 11
18 19 3 9 11 12 18 8 8 -5 9 -2 5 9 -3 9 1 30 9 46 11 22 12 35 5 48 -9 16
-10 15 -11 -7z"/>
<path d="M2250 897 c0 -26 4 -47 9 -47 8 0 3 79 -5 89 -2 2 -4 -17 -4 -42z"/>
<path d="M1696 922 c-3 -5 1 -9 9 -9 8 0 15 4 15 9 0 4 -4 8 -9 8 -6 0 -12 -4
-15 -8z"/>
<path d="M2550 920 c0 -5 5 -10 11 -10 5 0 7 5 4 10 -3 6 -8 10 -11 10 -2 0
-4 -4 -4 -10z"/>
<path d="M1088 913 c-10 -2 -18 -9 -18 -14 0 -13 12 -11 34 6 20 15 16 17 -16
8z"/>
<path d="M2992 895 c0 -16 2 -22 5 -12 2 9 2 23 0 30 -3 6 -5 -1 -5 -18z"/>
<path d="M887 903 c-10 -10 -8 -23 4 -23 5 0 8 4 5 9 -4 5 0 12 6 14 7 3 8 6
2 6 -6 1 -14 -2 -17 -6z"/>
<path d="M2761 903 c-1 -6 -4 -20 -7 -30 -5 -17 -5 -17 6 0 6 10 9 23 6 30 -3
9 -5 9 -5 0z"/>
<path d="M2555 874 c2 -33 15 -43 15 -11 0 14 -4 28 -8 31 -4 2 -7 -6 -7 -20z"/>
<path d="M2810 868 c-31 -47 -32 -52 -6 -24 15 15 26 32 24 37 -2 5 -10 -1
-18 -13z"/>
<path d="M2686 867 c3 -10 9 -15 12 -12 3 3 0 11 -7 18 -10 9 -11 8 -5 -6z"/>
<path d="M2877 863 c-4 -3 -7 -11 -7 -17 0 -6 5 -5 12 2 6 6 9 14 7 17 -3 3
-9 2 -12 -2z"/>
<path d="M1060 851 c0 -13 28 -33 33 -23 3 4 -3 13 -14 20 -10 7 -19 8 -19 3z"/>
<path d="M2992 840 c0 -14 2 -19 5 -12 2 6 2 18 0 25 -3 6 -5 1 -5 -13z"/>
<path d="M2925 840 l-30 -8 33 -1 c17 0 32 4 32 9 0 6 -1 9 -2 9 -2 -1 -16 -5
-33 -9z"/>
<path d="M1741 833 c0 -6 -4 -20 -7 -30 -5 -14 -4 -15 5 -7 7 7 11 20 8 30 -3
11 -5 14 -6 7z"/>
<path d="M2040 820 c-13 -8 -12 -10 3 -10 9 0 17 5 17 10 0 12 -1 12 -20 0z"/>
<path d="M2160 822 c0 -5 7 -9 15 -9 8 0 12 4 9 9 -3 4 -9 8 -15 8 -5 0 -9 -4
-9 -8z"/>
<path d="M1280 791 c0 -5 5 -13 10 -16 6 -3 10 -2 10 4 0 5 -4 13 -10 16 -5 3
-10 2 -10 -4z"/>
<path d="M1318 793 c6 -2 18 -2 25 0 6 3 1 5 -13 5 -14 0 -19 -2 -12 -5z"/>
<path d="M2020 796 c0 -2 7 -6 15 -10 8 -3 15 -1 15 4 0 6 -7 10 -15 10 -8 0
-15 -2 -15 -4z"/>
<path d="M2810 793 c0 -17 52 -47 85 -50 l30 -3 -29 15 c-15 8 -33 15 -39 15
-6 0 -19 7 -29 17 -10 9 -18 11 -18 6z"/>
<path d="M2002 780 c2 -8 -9 -31 -25 -51 -15 -20 -27 -44 -27 -53 0 -9 -4 -14
-10 -11 -6 3 -10 -4 -9 -17 0 -13 3 -17 6 -10 2 6 10 12 17 12 16 0 126 118
126 134 -1 6 -20 -9 -43 -34 -23 -25 -51 -52 -61 -60 -18 -14 -18 -14 -8 5 5
11 20 30 32 43 16 17 19 26 10 40 -8 12 -10 13 -8 2z"/>
<path d="M1720 762 c0 -15 -7 -26 -20 -29 -14 -4 -20 -14 -20 -33 0 -16 -7
-30 -15 -34 -9 -3 -15 -11 -14 -18 6 -27 -12 -57 -29 -52 -14 5 -15 4 -2 -5
11 -8 18 -7 25 3 6 7 15 11 21 9 7 -2 10 7 8 24 -4 24 -3 25 5 8 9 -19 10 -18
12 5 1 14 2 36 3 49 1 31 32 52 47 31 8 -11 9 -9 3 10 -3 14 -10 32 -15 40 -6
12 -8 10 -9 -8z"/>
<path d="M1770 770 c0 -5 5 -10 11 -10 5 0 7 5 4 10 -3 6 -8 10 -11 10 -2 0
-4 -4 -4 -10z"/>
<path d="M2140 755 c-6 -8 -10 -20 -7 -27 4 -8 6 -7 6 5 1 14 11 17 54 18 38
0 47 3 32 9 -32 14 -71 11 -85 -5z"/>
<path d="M1217 744 c3 -7 9 -14 14 -14 4 0 6 -6 3 -13 -3 -8 2 -20 11 -27 8
-7 15 -10 15 -7 0 3 20 -1 45 -8 44 -14 60 -9 47 12 -4 5 -23 10 -42 9 -22 0
-34 4 -33 11 2 6 -6 15 -17 18 -11 4 -20 10 -20 15 0 4 -7 10 -14 13 -10 4
-13 1 -9 -9z m38 -34 c3 -5 1 -10 -4 -10 -6 0 -11 5 -11 10 0 6 2 10 4 10 3 0
8 -4 11 -10z"/>
<path d="M1811 726 c-1 -28 -2 -29 -15 -11 -14 19 -15 19 -39 -7 -14 -15 -27
-35 -30 -45 -3 -10 -5 -2 -6 17 -1 19 -5 30 -9 23 -6 -10 -7 -38 -3 -90 1 -12
4 -14 9 -7 4 7 18 14 32 15 20 3 25 10 27 34 2 25 1 27 -7 10 -6 -14 -9 -16
-10 -5 -1 9 -5 5 -11 -9 -5 -13 -12 -21 -15 -18 -5 5 25 64 43 87 8 9 22 -26
18 -45 -14 -70 -16 -77 -30 -71 -8 3 -17 1 -20 -4 -9 -15 31 -12 42 3 16 20
35 102 30 128 -4 21 -4 20 -6 -5z"/>
<path d="M2794 739 c-3 -6 -1 -16 5 -22 8 -8 11 -5 11 11 0 24 -5 28 -16 11z"/>
<path d="M1581 724 c0 -11 3 -14 6 -6 3 7 2 16 -1 19 -3 4 -6 -2 -5 -13z"/>
<path d="M1646 724 c-4 -9 -4 -19 -1 -22 2 -3 7 3 11 12 4 9 4 19 1 22 -2 3
-7 -3 -11 -12z"/>
<path d="M2241 724 c0 -11 3 -14 6 -6 3 7 2 16 -1 19 -3 4 -6 -2 -5 -13z"/>
<path d="M1300 720 c-8 -5 -10 -10 -5 -10 6 0 17 5 25 10 8 5 11 10 5 10 -5 0
-17 -5 -25 -10z"/>
<path d="M1481 719 c-13 -5 -32 -20 -43 -34 -11 -14 -26 -25 -34 -25 -27 0
-14 -15 29 -34 23 -10 45 -23 49 -29 4 -7 11 -7 21 2 13 10 17 9 25 -6 12 -20
59 -26 59 -6 0 6 -5 9 -10 6 -6 -3 -7 -1 -3 5 4 7 16 12 27 12 16 0 19 5 14
19 -3 11 -1 22 5 26 16 10 12 23 -7 21 -10 -2 -22 2 -26 8 -4 6 -5 -1 -1 -15
3 -17 1 -30 -7 -35 -9 -5 -10 -2 -6 10 4 11 3 15 -4 10 -6 -3 -9 -15 -6 -25 3
-10 -1 -26 -9 -36 -13 -17 -13 -17 -15 2 -1 11 -1 24 0 28 1 4 3 24 6 45 4 36
4 36 -10 12 -7 -14 -11 -28 -9 -32 3 -5 1 -8 -4 -8 -5 0 -14 -10 -20 -22 -8
-18 -11 -19 -11 -5 -1 9 -7 18 -13 18 -7 1 -19 2 -27 3 -8 0 -16 8 -18 16 -4
12 -3 12 5 1 6 -8 12 -9 16 -3 3 6 1 12 -6 14 -18 6 -1 26 40 48 38 20 34 26
-7 9z"/>
<path d="M1875 720 c3 -5 8 -10 11 -10 2 0 4 5 4 10 0 6 -5 10 -11 10 -5 0 -7
-4 -4 -10z"/>
<path d="M2165 720 c-3 -5 -2 -10 4 -10 5 0 13 5 16 10 3 6 2 10 -4 10 -5 0
-13 -4 -16 -10z"/>
<path d="M2647 703 c-4 -15 -10 -39 -13 -52 -5 -16 -4 -22 4 -18 5 4 13 25 17
48 8 46 1 64 -8 22z"/>
<path d="M2840 726 c0 -2 7 -19 15 -37 8 -21 14 -27 15 -16 0 10 5 15 11 12 6
-4 5 2 -3 14 -11 18 -38 37 -38 27z"/>
<path d="M1610 705 c0 -8 2 -15 4 -15 2 0 6 7 10 15 3 8 1 15 -4 15 -6 0 -10
-7 -10 -15z"/>
<path d="M2687 685 c-9 -20 -17 -48 -16 -63 0 -19 6 -9 19 33 22 68 21 80 -3
30z"/>
<path d="M2967 683 c-5 -26 -4 -26 9 -8 16 22 18 35 5 35 -5 0 -11 -12 -14
-27z"/>
<path d="M1393 688 c-12 -6 -24 -19 -27 -30 -4 -17 -10 -19 -33 -14 -22 6 -25
5 -16 -5 16 -16 60 -3 68 21 4 11 10 18 15 15 4 -3 13 2 20 10 14 17 5 18 -27
3z"/>
<path d="M1896 684 c-3 -9 -4 -20 -1 -24 3 -5 1 -11 -5 -15 -5 -3 -10 -14 -9
-23 0 -11 3 -12 6 -4 2 6 11 12 18 12 13 0 15 24 3 36 -4 3 -4 12 -1 20 3 8 3
14 0 14 -3 0 -8 -7 -11 -16z"/>
<path d="M2795 691 c-3 -5 -1 -12 5 -16 5 -3 10 1 10 9 0 18 -6 21 -15 7z"/>
<path d="M1486 675 c-11 -8 -16 -15 -10 -15 5 0 18 7 28 15 11 8 16 15 10 15
-5 0 -18 -7 -28 -15z"/>
<path d="M2220 671 c0 -11 -9 -47 -19 -80 -10 -34 -15 -63 -11 -66 7 -4 20 35
34 107 3 14 9 33 12 42 3 9 1 16 -5 16 -6 0 -11 -9 -11 -19z"/>
<path d="M1844 656 c-11 -12 -20 -30 -20 -41 1 -11 -3 -23 -9 -27 -6 -5 -6 -8
2 -8 6 0 15 5 18 10 4 6 11 7 17 4 7 -4 8 -2 4 5 -4 6 -12 9 -17 6 -17 -11 -9
11 12 33 27 29 21 46 -7 18z"/>
<path d="M2131 644 c0 -11 3 -14 6 -6 3 7 2 16 -1 19 -3 4 -6 -2 -5 -13z"/>
<path d="M1260 637 c0 -20 46 -60 62 -54 10 4 10 6 0 6 -7 1 -23 11 -35 22
-17 17 -18 21 -4 16 23 -9 22 0 -3 13 -15 8 -20 8 -20 -3z"/>
<path d="M1625 630 c3 -5 8 -10 11 -10 2 0 4 5 4 10 0 6 -5 10 -11 10 -5 0 -7
-4 -4 -10z"/>
<path d="M2138 595 c2 -14 6 -25 8 -25 2 0 4 11 4 25 0 14 -4 25 -9 25 -4 0
-6 -11 -3 -25z"/>
<path d="M2861 604 c0 -11 3 -14 6 -6 3 7 2 16 -1 19 -3 4 -6 -2 -5 -13z"/>
<path d="M2740 585 c-7 -9 -8 -15 -2 -15 5 0 12 7 16 15 3 8 4 15 2 15 -2 0
-9 -7 -16 -15z"/>
<path d="M1305 549 c17 -20 32 -34 34 -33 2 2 18 -6 35 -18 22 -16 27 -17 17
-5 -7 9 -9 17 -4 17 12 0 53 -47 47 -53 -3 -3 0 -8 7 -13 8 -4 10 -3 5 4 -11
18 3 14 35 -9 16 -11 29 -15 29 -9 0 6 4 9 9 6 5 -4 21 -2 35 4 16 6 27 6 31
-1 4 -5 12 -6 18 -3 8 5 8 3 0 -7 -15 -15 -17 -29 -5 -29 5 0 15 11 22 25 8
14 19 24 26 21 7 -3 20 5 30 17 10 12 12 16 4 10 -15 -14 -46 -17 -53 -5 -2 4
-2 1 -1 -5 2 -7 -1 -13 -6 -13 -6 0 -10 4 -10 9 0 5 -16 8 -36 6 -22 -2 -37 2
-40 10 -3 7 -14 15 -25 18 -10 3 -17 1 -13 -4 8 -13 -10 -11 -25 4 -10 10 -11
8 -5 -6 10 -26 -16 -17 -45 16 -13 15 -32 27 -42 27 -11 0 -19 5 -19 10 0 6
-7 10 -15 10 -9 0 -28 8 -43 17 l-27 18 30 -36z m215 -83 c0 -15 -24 -28 -34
-19 -7 7 13 33 25 33 5 0 9 -6 9 -14z"/>
<path d="M2923 555 c-3 -9 2 -24 12 -35 12 -13 16 -29 12 -47 -4 -20 1 -36 14
-53 19 -23 20 -23 14 -4 -3 12 -7 44 -8 71 -2 44 -4 49 -21 45 -16 -4 -18 -1
-14 16 7 25 0 30 -9 7z"/>
<path d="M2252 530 c0 -19 2 -27 5 -17 2 9 2 25 0 35 -3 9 -5 1 -5 -18z"/>
<path d="M2856 527 c3 -10 9 -15 12 -12 3 3 0 11 -7 18 -10 9 -11 8 -5 -6z"/>
<path d="M1835 520 c-3 -5 -2 -10 4 -10 5 0 13 5 16 10 3 6 2 10 -4 10 -5 0
-13 -4 -16 -10z"/>
<path d="M2888 488 c-2 -17 -9 -34 -17 -36 -8 -3 -11 -1 -9 4 3 5 2 18 -3 29
-6 16 -7 13 -4 -10 2 -16 4 -33 4 -38 1 -4 12 0 25 8 17 11 22 22 18 37 -3 14
-1 19 6 14 8 -5 10 -2 6 8 -10 26 -23 18 -26 -16z"/>
<path d="M1557 409 c7 -7 15 -10 18 -7 3 3 -2 9 -12 12 -14 6 -15 5 -6 -5z"/>
<path d="M2891 404 c0 -11 3 -14 6 -6 3 7 2 16 -1 19 -3 4 -6 -2 -5 -13z"/>
<path d="M2961 371 c-6 -11 -7 -22 -2 -25 5 -3 11 4 14 16 8 30 1 35 -12 9z"/>
<path d="M1435 350 c-3 -5 -1 -10 4 -10 6 0 11 5 11 10 0 6 -2 10 -4 10 -3 0
-8 -4 -11 -10z"/>
<path d="M1760 333 c-14 -7 -19 -13 -12 -13 6 0 12 -9 12 -20 0 -11 -7 -20
-15 -20 -8 0 -15 -5 -15 -11 0 -5 -4 -7 -10 -4 -12 7 -12 -45 0 -90 l8 -30 1
28 c2 47 29 33 33 -18 2 -25 0 -45 -4 -45 -5 0 -8 19 -9 43 l-1 42 -10 -38
c-9 -32 -8 -42 6 -55 26 -26 35 -1 30 87 -6 106 -6 122 7 138 17 19 8 22 -21
6z m0 -104 c0 -11 -4 -17 -10 -14 -5 3 -10 15 -10 26 0 11 5 17 10 14 6 -3 10
-15 10 -26z"/>
<path d="M1673 318 c-2 -5 2 -8 9 -8 9 0 9 -3 2 -8 -6 -4 -16 -17 -23 -29 -10
-20 -9 -23 8 -23 14 0 19 -7 18 -27 -1 -29 23 -126 29 -120 2 2 -3 41 -11 86
-12 71 -12 85 -1 97 11 11 15 11 19 1 2 -6 4 0 3 14 -1 21 -6 26 -24 25 -13 0
-26 -4 -29 -8z"/>
<path d="M1592 298 c-7 -7 -12 -16 -12 -21 0 -5 7 -1 16 8 9 9 14 18 12 20 -2
3 -10 -1 -16 -7z"/>
<path d="M1633 194 c-26 -29 -33 -55 -16 -61 8 -3 11 3 8 16 -2 12 0 21 4 21
4 0 13 11 19 25 14 31 13 31 -15 -1z"/>
<path d="M1651 144 c0 -11 3 -14 6 -6 3 7 2 16 -1 19 -3 4 -6 -2 -5 -13z"/>
<path d="M1575 140 c3 -5 8 -10 11 -10 2 0 4 5 4 10 0 6 -5 10 -11 10 -5 0 -7
-4 -4 -10z"/>
<path d="M2976 142 c-2 -4 -1 -14 5 -22 7 -12 9 -10 9 8 0 23 -5 28 -14 14z"/>
<path d="M1560 90 c0 -5 5 -10 10 -10 6 0 10 5 10 10 0 6 -4 10 -10 10 -5 0
-10 -4 -10 -10z"/>
<path d="M2980 91 c0 -6 4 -13 10 -16 6 -3 7 1 4 9 -7 18 -14 21 -14 7z"/>
<path d="M1562 40 c0 -14 2 -19 5 -12 2 6 2 18 0 25 -3 6 -5 1 -5 -13z"/>
<path d="M1581 14 c0 -11 3 -14 6 -6 3 7 2 16 -1 19 -3 4 -6 -2 -5 -13z"/>
</g>
</svg>
